<svg xmlns="http://www.w3.org/2000/svg" width="61" height="61" fill="none"><g id="fi_2610605" clip-path="url('#clip0_1756_412')"><g id="Group" fill="#FF441F"><path id="Vector" d="M48.071 48.397a1.176 1.176 0 1 0-1.428 1.87l2.01 1.536a1.175 1.175 0 0 0 1.586-.145l3.843-4.242a1.176 1.176 0 1 0-1.744-1.58l-3.116 3.44z"/><path id="Vector_2" d="M60.562 42.118a1.176 1.176 0 0 0-1.074-1.146c-2.798-.244-6.242-2.124-8.774-4.788a1.177 1.177 0 0 0-1.705 0 17.8 17.8 0 0 1-3.816 3.032c-2.388-2.666-5.328-4.63-8.773-5.867l-.091-.033a24 24 0 0 0-.815-.272c2.914-2.906 4.874-6.724 4.874-10.15v-1.848a3.9 3.9 0 0 0 2.343-3.571 3.895 3.895 0 0 0-2.509-3.636c-.605-5.87-4.74-10.804-10.421-12.437A1.77 1.77 0 0 0 28.074 0H23.81c-.819 0-1.507.56-1.705 1.318a14.63 14.63 0 0 0-7.26 4.548 14.54 14.54 0 0 0-3.458 7.974 3.895 3.895 0 0 0-2.51 3.635c0 1.597.968 2.972 2.347 3.572v1.847c0 3.423 1.96 7.243 4.873 10.15a24 24 0 0 0-.94.318c-3.857 1.39-7.076 3.694-9.597 6.873C3.136 43.294 1.412 47.07.438 51.462.09 53.03-.17 55.002.9 56.335c1.045 1.302 2.915 1.468 4.428 1.468h7.695a1.176 1.176 0 1 0 0-2.352H5.328c-1.407 0-2.28-.198-2.594-.59-.332-.413-.332-1.386 0-2.89 1.223-5.507 4.213-12.246 11.415-15.649-.221 3.974 1.932 6.572 3.3 8.22a1.176 1.176 0 0 0 1.726.093l6.63-6.448 6.633 6.448a1.176 1.176 0 0 0 1.725-.093c1.367-1.65 3.517-4.25 3.298-8.215a18.8 18.8 0 0 1 5.523 3.968c-.948.367-1.88.602-2.75.677a1.176 1.176 0 0 0-1.073 1.145c-.098 4.206.603 7.22 2.5 10.746.015.03.656 1.179 1.655 2.588H23.673a1.176 1.176 0 1 0 0 2.353h21.511c1.419 1.567 3.091 2.901 4.677 2.901 3.827 0 8.16-7.764 8.2-7.841 1.894-3.528 2.595-6.54 2.5-10.746M37.82 13.585h-6.477c-1.224-3.196-1.455-5.832-1.497-9.701a12.16 12.16 0 0 1 7.974 9.701M24.399 2.353h3.087c.008 4.553.123 7.637 1.356 11.232h-5.797c1.231-3.595 1.346-6.68 1.354-11.232m-2.36 1.438c-.04 3.92-.264 6.572-1.495 9.795H13.79c.67-4.516 3.917-8.361 8.247-9.795M12.77 15.938h7.87c.069.056.136.063.192 0h18.009a1.538 1.538 0 0 1 0 3.077H12.77c-.85 0-1.54-.691-1.54-1.54 0-.848.69-1.537 1.54-1.537m.806 6.956v-1.526h24.458v1.526c0 4.485-4.345 10.032-9.299 11.87-2.167.806-3.706.805-5.878-.002-4.944-1.846-9.28-7.392-9.28-11.868M18.46 42.05c-1.218-1.59-2.39-3.677-1.827-6.706q.778-.252 1.611-.456c1.186.87 2.466 1.585 3.792 2.08q.639.237 1.24.398zm14.692-.001-4.82-4.684q.594-.16 1.223-.394c1.334-.494 2.62-1.21 3.81-2.083q.825.2 1.611.455c.565 3.025-.607 5.114-1.824 6.706m22.837 9.704c-1.392 2.596-4.65 6.6-6.128 6.6s-4.736-4.004-6.128-6.602c-1.554-2.89-2.192-5.301-2.227-8.583 1.27-.242 2.59-.715 3.89-1.377q.068-.03.133-.069c1.518-.788 3.001-1.832 4.332-3.072 2.505 2.337 5.556 3.986 8.355 4.518-.038 3.282-.675 5.694-2.227 8.585"/><path id="Vector_3" d="M18.348 55.45a1.176 1.176 0 0 0 0 2.353h.007c.65 0 1.172-.526 1.172-1.176s-.53-1.176-1.18-1.176"/></g></g><defs><clipPath id="clip0_1756_412"><path fill="#fff" d="M0 0h60.705v60.705H0z"/></clipPath></defs></svg>