<svg xmlns="http://www.w3.org/2000/svg" width="321" height="83" fill="none"><g clip-path="url('#clip0_1756_343')"><path fill="#fff" d="M110.826 34.38c0-11.715 8.995-20.1 21.1-20.1 6.718 0 12.325 2.444 15.991 6.885l-5.774 5.33c-2.61-2.997-5.885-4.553-9.772-4.553-7.274 0-12.438 5.108-12.438 12.438s5.164 12.438 12.438 12.438c3.887 0 7.164-1.554 9.772-4.607l5.774 5.33c-3.664 4.498-9.271 6.94-16.045 6.94-12.049 0-21.044-8.384-21.044-20.099zM180.953 36.77v17.045h-8.107v-3.72c-1.61 2.72-4.72 4.164-9.105 4.164-6.997 0-11.161-3.887-11.161-9.05 0-5.165 3.72-8.94 12.825-8.94h6.885c0-3.72-2.221-5.884-6.885-5.884-3.164 0-6.441 1.056-8.607 2.777l-3.11-6.052c3.277-2.33 8.107-3.608 12.882-3.608 9.105 0 14.381 4.22 14.381 13.272zm-8.661 7.605v-3.054h-5.941c-4.054 0-5.331 1.5-5.331 3.498 0 2.164 1.833 3.608 4.887 3.608 2.887 0 5.385-1.334 6.385-4.054zM208.714 23.499v7.994c-.721-.056-1.277-.11-1.943-.11-4.775 0-7.941 2.61-7.941 8.328v14.103h-8.661V23.941h8.274v3.944c2.11-2.888 5.663-4.387 10.271-4.387M245.416 12.617v41.199h-8.274v-3.444c-2.166 2.61-5.331 3.887-9.328 3.887-8.441 0-14.936-5.997-14.936-15.379s6.497-15.38 14.936-15.38c3.664 0 6.774 1.167 8.94 3.609V12.617zm-8.495 26.263c0-5.164-3.331-8.274-7.607-8.274-4.277 0-7.662 3.11-7.662 8.274s3.331 8.274 7.662 8.274 7.607-3.11 7.607-8.274M281.228 36.77v17.045h-8.107v-3.72c-1.61 2.72-4.72 4.164-9.105 4.164-6.997 0-11.161-3.887-11.161-9.05 0-5.165 3.72-8.94 12.825-8.94h6.885c0-3.72-2.221-5.884-6.885-5.884-3.164 0-6.441 1.056-8.607 2.777l-3.11-6.052c3.277-2.33 8.107-3.608 12.882-3.608 9.105 0 14.381 4.22 14.381 13.272zm-8.661 7.605v-3.054h-5.941c-4.054 0-5.331 1.5-5.331 3.498 0 2.164 1.833 3.608 4.887 3.608 2.887 0 5.385-1.334 6.385-4.054zM320.983 36.714v17.102h-8.661v-15.77c0-4.83-2.221-7.05-6.051-7.05-4.165 0-7.162 2.553-7.162 8.05v14.77h-8.661V23.942h8.273v3.498c2.333-2.554 5.831-3.942 9.885-3.942 7.051 0 12.381 4.108 12.381 13.216zM121.927 71.52v.813h-4.744v-6.537h4.614v.813h-3.68v2.008h3.278v.793h-3.278v2.11zM131.4 65.794v6.537h-.765l-3.923-4.875v4.875h-.934v-6.537h.765l3.923 4.875v-4.875zM140.228 69.026h.897v2.55c-.654.55-1.56.832-2.475.832-2.008 0-3.484-1.41-3.484-3.343s1.476-3.343 3.502-3.343c1.036 0 1.915.345 2.511 1.008l-.578.578c-.542-.524-1.158-.757-1.895-.757-1.514 0-2.606 1.056-2.606 2.512s1.092 2.511 2.596 2.511c.552 0 1.064-.12 1.532-.42v-2.13zM149.99 71.52v.813h-4.745v-6.537h4.614v.813h-3.68v2.008h3.279v.793h-3.279v2.11zM159.46 65.794v6.537h-.765l-3.923-4.875v4.875h-.934v-6.537h.765l3.923 4.875v-4.875zM169.38 65.794v6.537h-.933v-2.913h-3.755v2.913h-.933v-6.537h.933v2.81h3.755v-2.81zM177.845 70.699h-3.473l-.719 1.634h-.962l2.961-6.537h.926l2.97 6.537h-.98l-.719-1.634zm-.327-.75-1.41-3.203-1.409 3.204h2.821zM187.223 72.333l-1.409-2.008q-.198.017-.412.018h-1.616v1.99h-.934v-6.537h2.55c1.701 0 2.727.86 2.727 2.279 0 1.008-.522 1.736-1.438 2.064l1.55 2.194zm-.028-4.26c0-.934-.626-1.466-1.821-1.466h-1.588v2.941h1.588c1.195 0 1.821-.542 1.821-1.475M191.979 65.794h.934v6.537h-.934zM201.376 70.699h-3.474l-.718 1.634h-.962l2.961-6.537h.926l2.969 6.537h-.98l-.718-1.634zm-.328-.75-1.409-3.203-1.409 3.204h2.82zM215.976 71.52v.813h-4.744v-6.537h4.614v.813h-3.68v2.008h3.278v.793h-3.278v2.11zM224.142 69.065c0-1.934 1.476-3.343 3.465-3.343 1.008 0 1.888.345 2.484 1.018l-.607.588c-.503-.532-1.12-.775-1.839-.775-1.475 0-2.568 1.064-2.568 2.512s1.093 2.511 2.568 2.511c.719 0 1.336-.253 1.839-.785l.607.588c-.599.673-1.476 1.028-2.494 1.028-1.979 0-3.455-1.409-3.455-3.342M233.09 69.065c0-1.916 1.476-3.343 3.484-3.343s3.465 1.42 3.465 3.343-1.475 3.343-3.465 3.343-3.484-1.43-3.484-3.343m6.016 0c0-1.448-1.085-2.512-2.532-2.512s-2.55 1.064-2.55 2.512 1.082 2.511 2.55 2.511 2.532-1.064 2.532-2.511M249.427 65.794v6.537h-.765l-3.923-4.875v4.875h-.933v-6.537h.765l3.923 4.875v-4.875zM253.128 71.584l.345-.728c.486.44 1.317.757 2.158.757 1.131 0 1.617-.44 1.617-1.008 0-1.599-3.96-.589-3.96-3.018 0-1.008.785-1.867 2.504-1.867.765 0 1.56.204 2.102.578l-.309.747a3.4 3.4 0 0 0-1.793-.532c-1.112 0-1.588.468-1.588 1.036 0 1.596 3.959.598 3.959 2.997 0 1-.803 1.86-2.532 1.86-1 0-1.979-.336-2.503-.822M263.066 66.607h-2.241v-.813h5.407v.813h-2.24v5.726h-.926zM273.958 72.333l-1.41-2.008a5 5 0 0 1-.411.018h-1.616v1.99h-.934v-6.537h2.55c1.7 0 2.726.86 2.726 2.279 0 1.008-.522 1.736-1.437 2.064l1.55 2.194zm-.028-4.26c0-.934-.627-1.466-1.821-1.466h-1.588v2.941h1.588c1.194 0 1.821-.542 1.821-1.475M278.656 69.512v-3.716h.934v3.68c0 1.448.662 2.102 1.839 2.102 1.176 0 1.849-.654 1.849-2.102v-3.68h.905v3.716c0 1.896-1.036 2.895-2.764 2.895-1.729 0-2.765-1-2.765-2.895zM293.246 70.791l.607.588c-.589.655-1.438 1.008-2.428 1.028l-.102.392c.542.056.813.363.813.775 0 .522-.458.85-1.158.85-.328 0-.599-.067-.832-.206l.197-.457c.197.112.402.158.635.158.355 0 .524-.14.524-.373 0-.215-.159-.364-.532-.364h-.253l.204-.803c-1.754-.186-3.017-1.532-3.017-3.314 0-1.934 1.476-3.343 3.465-3.343 1.008 0 1.887.345 2.484 1.018l-.607.588c-.504-.532-1.12-.775-1.839-.775-1.475 0-2.568 1.064-2.568 2.512s1.093 2.511 2.568 2.511a2.43 2.43 0 0 0 1.839-.785M296.854 69.065c0-1.916 1.476-3.343 3.484-3.343s3.465 1.42 3.465 3.343-1.476 3.343-3.465 3.343c-1.99 0-3.484-1.43-3.484-3.343m6.013 0c0-1.448-1.084-2.512-2.531-2.512s-2.55 1.064-2.55 2.512 1.084 2.511 2.55 2.511 2.531-1.064 2.531-2.511m-3.118-4.456c-.271 0-.457.215-.475.579h-.504c.018-.69.373-1.14.915-1.14.599 0 .898.634 1.243.634.271 0 .458-.215.476-.56h.504c-.018.662-.374 1.112-.916 1.112-.598 0-.897-.626-1.243-.626zM312.312 71.52v.813h-4.744v-6.537h4.614v.813h-3.681v2.008h3.279v.793h-3.279v2.11zM315.565 71.584l.345-.728c.486.44 1.317.757 2.158.757 1.131 0 1.616-.44 1.616-1.008 0-1.599-3.959-.589-3.959-3.018 0-1.008.785-1.867 2.504-1.867.765 0 1.56.204 2.102.578l-.309.747a3.4 3.4 0 0 0-1.793-.532c-1.112 0-1.588.468-1.588 1.036 0 1.596 3.959.598 3.959 2.997 0 1-.803 1.86-2.532 1.86-1 0-1.979-.336-2.503-.822"/><path fill="#E84929" d="M.477 27.173 26.784.476A1.6 1.6 0 0 1 27.926 0L89.74.15c1.42.005 2.13 1.717 1.132 2.725L66.94 27.056a1.6 1.6 0 0 1-1.136.474l-36.865.014c-.885 0-1.602.721-1.598 1.607l.119 25.723h62.7c1.423 0 2.138 1.72 1.132 2.728L66.827 82.135c-.3.301-.707.47-1.133.47H28.866a1.6 1.6 0 0 1-1.6-1.61l.193-26.121-25.708-.026a1.6 1.6 0 0 1-1.598-1.59L.017 28.305c-.002-.423.162-.829.46-1.13z"/></g><defs><clipPath id="clip0_1756_343"><path fill="#fff" d="M.017 0h320.967v82.607H.017z"/></clipPath></defs></svg>