<svg xmlns="http://www.w3.org/2000/svg" width="61" height="61" fill="none"><g id="fi_4257483" clip-path="url('#clip0_1756_402')"><g id="Group"><g id="Page-1_17_"><g id="_x30_19---Technology-Engineering" fill="#FF441F"><path id="Shape_65_" d="M2.515 25.044a2.83 2.83 0 0 0-2.357 2.443 26.2 26.2 0 0 0-.006 5.685 2.85 2.85 0 0 0 2.365 2.494l3.22.527a24.9 24.9 0 0 0 3.089 7.444L6.93 46.283a2.84 2.84 0 0 0 .044 3.43 27 27 0 0 0 1.923 2.113 33 33 0 0 0 2.132 1.94 2.825 2.825 0 0 0 3.392.04l2.66-1.908a24.9 24.9 0 0 0 7.436 3.09l.528 3.224a2.83 2.83 0 0 0 2.443 2.358q.867.098 1.752.135h.087c.527 0 1.034-.203 1.416-.567.397-.38.621-.905.62-1.455v-8.108a2.03 2.03 0 0 0-1.944-2.018c-9.683-.506-17.276-8.505-17.276-18.202s7.593-17.696 17.277-18.202a2.033 2.033 0 0 0 1.943-2.023V2.026A2 2 0 0 0 30.743.57a2 2 0 0 0-1.497-.567 29 29 0 0 0-1.771.126 2.82 2.82 0 0 0-2.428 2.37l-.527 3.22a24.9 24.9 0 0 0-7.437 3.092l-2.66-1.904a2.83 2.83 0 0 0-3.416.054q-1.101.901-2.104 1.911a25 25 0 0 0-1.94 2.135 2.83 2.83 0 0 0-.049 3.404l1.908 2.663a24.9 24.9 0 0 0-3.085 7.442zm5.052.565a22.9 22.9 0 0 1 3.325-8.011c.23-.35.22-.806-.024-1.147L8.561 13.23a.81.81 0 0 1-.015-.957 22 22 0 0 1 1.781-1.958q.922-.931 1.933-1.764a.81.81 0 0 1 .981 0l3.217 2.308c.341.244.797.253 1.147.022a22.9 22.9 0 0 1 8.006-3.326c.41-.084.726-.414.794-.827l.636-3.897a.8.8 0 0 1 .662-.687 26 26 0 0 1 1.638-.117l-.022 8.105c-10.772.55-19.221 9.447-19.215 20.233.006 10.785 8.465 19.673 19.237 20.211l-.014 8.108a23 23 0 0 1-1.613-.124.794.794 0 0 1-.672-.676l-.637-3.898a1.01 1.01 0 0 0-.794-.828 22.9 22.9 0 0 1-8.006-3.327 1.01 1.01 0 0 0-1.147.023l-3.22 2.31a.795.795 0 0 1-.942.026 31 31 0 0 1-1.969-1.794 26 26 0 0 1-1.763-1.93.82.82 0 0 1 0-.984l2.305-3.22c.245-.34.253-.796.023-1.146a22.9 22.9 0 0 1-3.325-8.01 1.01 1.01 0 0 0-.827-.794l-3.895-.638a.82.82 0 0 1-.68-.72c-.19-1.74-.188-3.496.005-5.235a.795.795 0 0 1 .675-.674l3.894-.637a1.01 1.01 0 0 0 .828-.798"/><path id="Shape_64_" d="M57.67 27.32a3.035 3.035 0 0 0-2.85 2.023H31.364v-3.035h16.188a3.035 3.035 0 0 0 3.035-3.036v-5.244a3.035 3.035 0 1 0-2.023 0v5.244c0 .56-.453 1.012-1.012 1.012H31.364V21.25h11.13a1.012 1.012 0 0 0 0-2.024h-11.13v-2.023h6.07a3.035 3.035 0 0 0 3.036-3.035V7.91a3.035 3.035 0 1 0-2.024 0v6.257c0 .559-.453 1.012-1.011 1.012h-6.338a1.87 1.87 0 0 0-1.776-.98c-8.525.54-15.164 7.613-15.164 16.156S20.796 45.97 29.322 46.51h.118a1.87 1.87 0 0 0 1.657-.98h6.338c.558 0 1.011.454 1.011 1.013v6.256a3.035 3.035 0 1 0 2.024 0v-6.256a3.035 3.035 0 0 0-3.035-3.036h-6.07v-2.023h11.128a1.012 1.012 0 1 0 0-2.024H31.364v-3.035h16.188c.559 0 1.012.453 1.012 1.012v5.245a3.035 3.035 0 1 0 2.023 0v-5.245a3.035 3.035 0 0 0-3.035-3.035H31.364v-3.036H54.82a3.03 3.03 0 1 0 2.85-4.047m-8.095-13.153a1.012 1.012 0 1 1 0 2.023 1.012 1.012 0 0 1 0-2.023M39.459 4.049a1.012 1.012 0 1 1 0 2.024 1.012 1.012 0 0 1 0-2.024m0 52.61a1.012 1.012 0 1 1 0-2.023 1.012 1.012 0 0 1 0 2.024m10.118-10.117a1.012 1.012 0 1 1 0-2.023 1.012 1.012 0 0 1 0 2.023M16.188 30.355c.009-7.427 5.746-13.59 13.153-14.128v28.256c-7.407-.54-13.144-6.702-13.153-14.128m41.481 1.011a1.012 1.012 0 1 1 0-2.023 1.012 1.012 0 0 1 0 2.023"/></g></g></g></g><defs><clipPath id="clip0_1756_402"><path fill="#fff" d="M0 0h60.705v60.705H0z"/></clipPath></defs></svg>