<svg xmlns="http://www.w3.org/2000/svg" width="223" height="58" fill="none"><g clip-path="url('#clip0_1756_510')"><path fill="#0A1D27" d="M76.988 23.887c0-8.14 6.25-13.965 14.66-13.965 4.667 0 8.563 1.698 11.11 4.783l-4.012 3.704c-1.813-2.083-4.089-3.164-6.79-3.164-5.053 0-8.64 3.549-8.64 8.642s3.587 8.642 8.64 8.642c2.701 0 4.978-1.08 6.79-3.202l4.012 3.704c-2.546 3.124-6.442 4.822-11.148 4.822-8.371 0-14.62-5.825-14.62-13.965zM125.71 25.547V37.39h-5.632v-2.585c-1.119 1.89-3.28 2.893-6.326 2.893-4.862 0-7.755-2.7-7.755-6.288s2.585-6.21 8.911-6.21h4.783c0-2.585-1.543-4.089-4.783-4.089-2.198 0-4.475.734-5.98 1.93l-2.161-4.205c2.277-1.62 5.633-2.507 8.95-2.507 6.326 0 9.992 2.932 9.992 9.22zm-6.017 5.284v-2.122h-4.128c-2.816 0-3.704 1.042-3.704 2.43 0 1.504 1.274 2.507 3.396 2.507 2.006 0 3.741-.926 4.436-2.817zM144.998 16.326v5.555c-.501-.04-.887-.077-1.35-.077-3.318 0-5.517 1.814-5.517 5.786v9.799h-6.018V16.635h5.748v2.74c1.467-2.007 3.936-3.049 7.137-3.049M170.497 8.766V37.39h-5.748v-2.392c-1.505 1.813-3.704 2.7-6.481 2.7-5.864 0-10.377-4.166-10.377-10.685s4.514-10.685 10.377-10.685c2.546 0 4.707.81 6.212 2.506V8.766zm-5.902 18.247c0-3.588-2.314-5.749-5.285-5.749s-5.323 2.161-5.323 5.749 2.314 5.748 5.323 5.748 5.285-2.16 5.285-5.748M195.379 25.547V37.39h-5.633v-2.585c-1.118 1.89-3.279 2.893-6.326 2.893-4.861 0-7.754-2.7-7.754-6.288s2.585-6.21 8.911-6.21h4.783c0-2.585-1.543-4.089-4.783-4.089-2.199 0-4.475.734-5.98 1.93l-2.161-4.205c2.276-1.62 5.633-2.507 8.95-2.507 6.326 0 9.992 2.932 9.992 9.22zm-6.018 5.284v-2.122h-4.127c-2.817 0-3.704 1.042-3.704 2.43 0 1.504 1.274 2.507 3.395 2.507 2.006 0 3.742-.926 4.436-2.817zM223 25.508V37.39h-6.018V26.434c0-3.356-1.543-4.899-4.204-4.899-2.893 0-4.976 1.774-4.976 5.594v10.26h-6.018V16.636h5.749v2.43c1.621-1.775 4.051-2.739 6.867-2.739 4.899 0 8.603 2.854 8.603 9.182z"/><path fill="#989999" d="M84.7 49.69v.565h-3.296v-4.542h3.206v.565h-2.557v1.395h2.278v.551h-2.278v1.466zM91.282 45.712v4.542h-.532l-2.725-3.387v3.387h-.649v-4.542h.531l2.726 3.387v-3.387zM97.415 47.958h.624v1.772c-.455.382-1.084.577-1.72.577-1.395 0-2.42-.98-2.42-2.323s1.025-2.322 2.433-2.322c.72 0 1.33.24 1.745.7l-.402.402a1.8 1.8 0 0 0-1.317-.526c-1.052 0-1.81.734-1.81 1.745s.758 1.745 1.803 1.745c.384 0 .74-.084 1.064-.291v-1.48M104.197 49.69v.565h-3.296v-4.542h3.206v.565h-2.557v1.395h2.278v.551h-2.278v1.466zM110.777 45.712v4.542h-.531l-2.726-3.387v3.387h-.648v-4.542h.531l2.726 3.387v-3.387zM117.67 45.712v4.542h-.649V48.23h-2.608v2.024h-.649v-4.542h.649v1.953h2.608v-1.953zM123.551 49.12h-2.413l-.5 1.135h-.668l2.058-4.542h.643l2.063 4.542h-.681l-.499-1.135zm-.228-.52-.979-2.227-.979 2.227h1.96zM130.067 50.255l-.98-1.395q-.137.012-.286.013h-1.123v1.382h-.648v-4.542h1.771c1.182 0 1.895.597 1.895 1.584 0 .7-.363 1.206-.999 1.434l1.077 1.524zm-.02-2.96c0-.648-.435-1.018-1.265-1.018h-1.104v2.044h1.104c.83 0 1.265-.377 1.265-1.026M133.371 45.712h.649v4.542h-.649zM139.899 49.12h-2.413l-.499 1.135h-.668l2.057-4.542h.643l2.063 4.542h-.68l-.5-1.135zm-.227-.52-.979-2.227-.979 2.227h1.959zM150.044 49.69v.565h-3.297v-4.542h3.206v.565h-2.557v1.395h2.278v.551h-2.278v1.466zM155.717 47.984c0-1.343 1.025-2.322 2.407-2.322.701 0 1.312.24 1.726.707l-.421.409a1.69 1.69 0 0 0-1.278-.539c-1.025 0-1.784.74-1.784 1.745s.759 1.745 1.784 1.745c.499 0 .927-.175 1.278-.545l.421.409c-.416.467-1.025.714-1.733.714-1.375 0-2.4-.98-2.4-2.323M161.934 47.984c0-1.33 1.025-2.322 2.42-2.322s2.408.986 2.408 2.322-1.025 2.323-2.408 2.323c-1.382 0-2.42-.993-2.42-2.323m4.179 0c0-1.005-.753-1.745-1.759-1.745s-1.771.74-1.771 1.745.751 1.745 1.771 1.745 1.759-.739 1.759-1.745M173.285 45.712v4.542h-.532l-2.726-3.387v3.387h-.648v-4.542h.531l2.726 3.387v-3.387zM175.855 49.735l.24-.506c.338.305.915.526 1.5.526.785 0 1.123-.306 1.123-.7 0-1.111-2.751-.41-2.751-2.097 0-.7.545-1.297 1.74-1.297.531 0 1.083.142 1.46.401l-.215.52a2.35 2.35 0 0 0-1.245-.37c-.773 0-1.104.324-1.104.72 0 1.108 2.751.415 2.751 2.082 0 .695-.558 1.292-1.759 1.292-.695 0-1.375-.233-1.74-.57M182.76 46.277h-1.557v-.565h3.757v.565h-1.557v3.978h-.643zM190.328 50.255l-.979-1.395a4 4 0 0 1-.286.013h-1.123v1.382h-.649v-4.542h1.772c1.181 0 1.894.597 1.894 1.584 0 .7-.363 1.206-.999 1.434l1.077 1.524zm-.02-2.96c0-.648-.435-1.018-1.265-1.018h-1.103v2.044h1.103c.83 0 1.265-.377 1.265-1.026M193.592 48.296v-2.583h.649v2.557c0 1.006.46 1.46 1.277 1.46.818 0 1.285-.454 1.285-1.46v-2.557h.629v2.582c0 1.317-.72 2.012-1.921 2.012s-1.92-.695-1.92-2.012zM203.729 49.184l.421.409c-.409.454-.999.7-1.686.714l-.071.272c.376.039.564.252.564.538 0 .363-.318.59-.804.59-.228 0-.416-.046-.578-.142l.137-.318c.137.078.279.11.441.11.247 0 .364-.097.364-.26 0-.148-.111-.252-.37-.252h-.176l.143-.558c-1.22-.13-2.097-1.064-2.097-2.303 0-1.343 1.025-2.322 2.408-2.322.7 0 1.311.24 1.725.707l-.421.409a1.68 1.68 0 0 0-1.278-.539c-1.025 0-1.784.74-1.784 1.745s.759 1.745 1.784 1.745c.5 0 .928-.175 1.278-.545M206.236 47.984c0-1.33 1.025-2.322 2.42-2.322s2.407.986 2.407 2.322-1.025 2.323-2.407 2.323-2.42-.993-2.42-2.323m4.177 0c0-1.005-.753-1.745-1.759-1.745s-1.771.74-1.771 1.745.753 1.745 1.771 1.745c1.019 0 1.759-.739 1.759-1.745m-2.166-3.095c-.188 0-.318.15-.331.402h-.35c.013-.48.26-.792.636-.792.416 0 .624.44.864.44.188 0 .318-.149.331-.389h.35c-.013.46-.26.773-.636.773-.416 0-.624-.435-.864-.435zM216.975 49.69v.565h-3.296v-4.542h3.206v.565h-2.557v1.395h2.278v.551h-2.278v1.466zM219.235 49.735l.24-.506c.338.305.915.526 1.5.526.785 0 1.123-.306 1.123-.7 0-1.111-2.751-.41-2.751-2.097 0-.7.545-1.297 1.739-1.297.532 0 1.084.142 1.461.401l-.215.52a2.35 2.35 0 0 0-1.246-.37c-.773 0-1.103.324-1.103.72 0 1.108 2.751.415 2.751 2.082 0 .695-.558 1.292-1.759 1.292-.695 0-1.376-.233-1.74-.57"/><path fill="#E84929" d="M.32 18.88 18.596.33c.21-.211.495-.33.794-.33l42.946.105c.986.002 1.48 1.192.787 1.893l-16.628 16.8c-.21.21-.492.33-.79.33l-25.612.01c-.615 0-1.113.5-1.11 1.115l.082 17.872h43.562c.99 0 1.486 1.195.787 1.896L46.418 57.065c-.208.21-.491.327-.787.327H20.044a1.11 1.11 0 0 1-1.112-1.119l.134-18.148-17.86-.018a1.11 1.11 0 0 1-1.111-1.105L0 19.666a1.1 1.1 0 0 1 .32-.785z"/></g><defs><clipPath id="clip0_1756_510"><path fill="#fff" d="M0 0h223v57.393H0z"/></clipPath></defs></svg>