<svg xmlns="http://www.w3.org/2000/svg" width="61" height="61" fill="none"><g id="fi_5531386" clip-path="url('#clip0_1756_421')"><path id="Vector" fill="#FF441F" d="m60.427 49.298-7.785-7.786v-25.67a.95.95 0 0 0-.949-.95h-.614a3.51 3.51 0 0 0-1.518-4.3l-.886-.51a3.51 3.51 0 0 0-4.79 1.283l-2.036 3.528H26.022l-3.905-3.906a.948.948 0 0 0-1.62.67v3.236H15.82V5.832a.95.95 0 0 0-.473-.821 10.2 10.2 0 0 0-5.12-1.372C4.589 3.639 0 8.227 0 13.867v32.971c0 5.64 4.588 10.228 10.228 10.228h41.465a.95.95 0 0 0 .949-.948v-5.201h7.114a.948.948 0 0 0 .671-1.62m-18.489-18.49 8.094-14.018h.712v22.825zm-6.804 6.603-2.47 1.426v-2.852zm-4.24-3.543a.95.95 0 0 0-.127.474v6.138a.948.948 0 0 0 1.423.821l5.315-3.069a.95.95 0 0 0 .347-.347l.163-.281 5.733 5.733H28.077v-15.67l4.056 4.055zm5.79 2.247-1.015-.586L48.96 12.508c.49.503.61 1.289.242 1.926zm8.845-23.802a1.61 1.61 0 0 1 1.788-.754L34.026 34.581l-1.015-.586zm-4.775 4.477-4.698 8.136-8.137-8.136zM1.897 13.867c0-4.594 3.737-8.331 8.33-8.331 1.286 0 2.553.297 3.696.863v30.9A10.222 10.222 0 0 0 1.897 40.91zm48.848 41.302H10.228c-4.594 0-8.331-3.737-8.331-8.33 0-4.594 3.737-8.332 8.33-8.332 1.467 0 2.908.386 4.17 1.117a.948.948 0 0 0 1.423-.821V16.79h4.677v33.178c0 .524.425.949.949.949h29.299zm-28.35-6.15v-3.113h1.25a.949.949 0 1 0 0-1.897h-1.25V41.69h1.25a.949.949 0 1 0 0-1.897h-1.25v-2.319h1.25a.949.949 0 1 0 0-1.897h-1.25v-2.319h1.25a.949.949 0 1 0 0-1.897h-1.25v-2.319h1.25a.949.949 0 1 0 0-1.897h-1.25v-2.319h1.25a.949.949 0 1 0 0-1.897h-1.25V20.61h1.25a.949.949 0 1 0 0-1.897h-1.25v-4.766l12.68 12.68-1.96 3.394-5.316-5.315a.949.949 0 0 0-1.62.67v18.91c0 .523.426.948.95.948h18.909a.949.949 0 0 0 .67-1.619l-7.711-7.712 1.96-3.394 16.51 16.51z"/></g><defs><clipPath id="clip0_1756_421"><path fill="#fff" d="M0 0h60.705v60.705H0z"/></clipPath></defs></svg>